<svg xmlns="http://www.w3.org/2000/svg" viewBox="0 0 213.33 40.41"><defs><style>.cls-1{fill:#FFFFFF;}</style></defs><title>Asset 4</title><g id="Layer_2" data-name="Layer 2"><g id="Layer_1-2" data-name="Layer 1"><path class="cls-1" d="M0,0H7.72L27.8,33.72V0H33V39.54H25.79L5.15,5V39.54H0Z"/><path class="cls-1" d="M65.79,27.8H48.08L43.55,39.54H38.09L54,0h6.18L76,39.54H70.32Zm-1.64-4.32L58.07,7.67c-.41-1-.77-2-1.13-3-.36,1-.72,1.95-1.14,3L49.73,23.48Z"/><path class="cls-1" d="M86.49,4.32H72.84V0h32.44V4.32H91.63V39.54H86.49Z"/><path class="cls-1" d="M110.27,24.15V0h5.15V23.43c0,8.7,3.34,12.66,9.73,12.66s9.73-3.81,9.73-12.66V0H140V24.15c0,10.91-5.61,16.26-14.87,16.26S110.27,35.06,110.27,24.15Z"/><path class="cls-1" d="M149.6,0h16.78c7.52,0,12.36,3.76,12.36,10.4A10.22,10.22,0,0,1,171.43,20c3.76.67,6.43,3.86,6.43,9.06v10.5h-5.15V30.43c0-6.23-2.42-8.19-8.28-8.19h-9.68v17.3H149.6Zm15.49,17.92c5.36,0,8.4-2.42,8.4-6.9s-3-6.7-8.4-6.7H154.75v13.6Z"/><path class="cls-1" d="M187,0h25.69V4.32H192.12V17.25h19.61v4.32H192.12V35.21h21.21v4.33H187Z"/></g></g></svg>