<svg xmlns="http://www.w3.org/2000/svg" viewBox="0 0 232.27 41.29"><defs><style>.cls-1{fill:#FFFFFF;}</style></defs><title>Asset 2</title><g id="Layer_2" data-name="Layer 2"><g id="Layer_1-2" data-name="Layer 1"><path class="cls-1" d="M0,27.7H5.25C5.56,33.41,9.73,37,16,37c6.49,0,10.09-2.88,10.09-7.15,0-3.81-3.19-5.51-7.88-6.59l-5.86-1.34c-6-1.39-11-4.84-11-10.91,0-6.34,6.07-11,14.47-11S30,4.58,30.48,11.94H25.23c-.36-4.68-4-7.62-9.53-7.62-5.15,0-9,2.58-9,6.23C6.74,14,9,16,13.64,17l7,1.6c6.29,1.44,10.87,4.84,10.87,10.81,0,6.48-5.82,11.84-15.55,11.84S.1,36,0,27.7Z"/><path class="cls-1" d="M36.29,20.64C36.29,8.24,44.32,0,55,0S73.77,8.24,73.77,20.64,65.64,41.29,55,41.29,36.29,33.05,36.29,20.64Zm32.08,0C68.37,10.55,62.91,4.32,55,4.32S41.7,10.55,41.7,20.64,47,37,55,37,68.37,30.74,68.37,20.64Z"/><path class="cls-1" d="M79,20.44C79,8.08,87.1,0,98,0c9.58,0,16.12,5.92,16.84,13.64h-5.61c-1-5.81-5-9.32-11.43-9.32-8,0-13.39,6.13-13.39,16.12S89.93,37,97.76,37c6.49,0,10.66-3.65,11.74-9.31h5.35c-1.08,8.44-7.62,13.64-17,13.64C86.59,41.29,79,33.36,79,20.44Z"/><path class="cls-1" d="M121.9.88h5.15V40.41H121.9Z"/><path class="cls-1" d="M137,.88h25.68V5.2H142.18V18.12H161.8v4.33H142.18V36.09h21.21v4.32H137Z"/><path class="cls-1" d="M180.28,5.2H166.63V.88h32.44V5.2H185.43V40.41h-5.15Z"/><path class="cls-1" d="M213.43,23.37,199.94.88h5.66l7.68,13.28L216,19c1-1.6,1.91-3.15,2.89-4.79L226.76.88h5.51L218.58,23.37v17h-5.15Z"/></g></g></svg>