<svg xmlns="http://www.w3.org/2000/svg" viewBox="0 0 242.83 41.29"><defs><style>.cls-1{fill:#FFFFFF;}</style></defs><title>Asset 3</title><g id="Layer_2" data-name="Layer 2"><g id="Layer_1-2" data-name="Layer 1"><path class="cls-1" d="M0,20.44C0,8.08,8.13,0,19,0c9.57,0,16.11,5.92,16.83,13.64H30.22c-1-5.81-5-9.32-11.43-9.32-8,0-13.38,6.13-13.38,16.12S11,37,18.79,37c6.49,0,10.66-3.65,11.74-9.31h5.35c-1.08,8.44-7.62,13.64-17,13.64C7.62,41.29,0,33.36,0,20.44Z"/><path class="cls-1" d="M42.52,25V.88h5.15V24.3C47.67,33,51,37,57.4,37s9.73-3.81,9.73-12.66V.88h5.15V25c0,10.91-5.61,16.27-14.88,16.27S42.52,35.93,42.52,25Z"/><path class="cls-1" d="M81.85.88H87V36.09h20.59v4.32H81.85Z"/><path class="cls-1" d="M116,5.2H102.34V.88h32.43V5.2H121.13V40.41H116Z"/><path class="cls-1" d="M139.77,25V.88h5.14V24.3c0,8.7,3.35,12.66,9.73,12.66s9.73-3.81,9.73-12.66V.88h5.15V25c0,10.91-5.61,16.27-14.88,16.27S139.77,35.93,139.77,25Z"/><path class="cls-1" d="M179.1.88h16.78c7.52,0,12.35,3.75,12.35,10.39a10.19,10.19,0,0,1-7.31,9.58c3.76.67,6.44,3.86,6.44,9.06v10.5h-5.15V31.3c0-6.23-2.42-8.18-8.29-8.18h-9.68V40.41H179.1Zm15.49,17.91c5.36,0,8.39-2.42,8.39-6.9s-3-6.69-8.39-6.69H184.24V18.79Z"/><path class="cls-1" d="M216.47.88h25.69V5.2H221.62V18.12h19.61v4.33H221.62V36.09h21.21v4.32H216.47Z"/></g></g></svg>