<svg xmlns="http://www.w3.org/2000/svg" viewBox="0 0 230.83 52.46"><defs><style>.cls-1{fill:#231f20;}</style></defs><title>Asset 1</title><g id="Layer_2" data-name="Layer 2"><g id="Layer_1-2" data-name="Layer 1"><path class="cls-1" d="M0,38.87H5.25c.31,5.71,4.48,9.27,10.76,9.27,6.49,0,10.09-2.89,10.09-7.16,0-3.81-3.19-5.51-7.88-6.59l-5.86-1.34c-6-1.39-11-4.84-11-10.91,0-6.33,6.07-11,14.47-11s14.2,4.58,14.67,12H25.23c-.36-4.69-4-7.62-9.53-7.62-5.15,0-9,2.57-9,6.23,0,3.39,2.27,5.4,6.9,6.48l7,1.6c6.29,1.44,10.87,4.84,10.87,10.81,0,6.49-5.82,11.84-15.55,11.84S.1,47.21,0,38.87Z"/><path class="cls-1" d="M36.29,31.82c0-12.41,8-20.65,18.74-20.65s18.74,8.24,18.74,20.65S65.64,52.46,55,52.46,36.29,44.22,36.29,31.82Zm32.08,0C68.37,21.73,62.91,15.5,55,15.5S41.7,21.73,41.7,31.82,47,48.14,55,48.14,68.37,41.91,68.37,31.82Z"/><path class="cls-1" d="M79,31.61c0-12.36,8.13-20.44,19-20.44,9.58,0,16.12,5.92,16.84,13.64h-5.61c-1-5.81-5-9.31-11.43-9.31-8,0-13.39,6.12-13.39,16.11s5.56,16.53,13.39,16.53c6.49,0,10.66-3.66,11.74-9.32h5.35c-1.08,8.44-7.62,13.64-17,13.64C86.59,52.46,79,44.53,79,31.61Z"/><path class="cls-1" d="M121.9,12.05h5.15V51.59H121.9Z"/><path class="cls-1" d="M137,12.05h25.69v4.32H142.18V29.29H161.8v4.33H142.18V47.26H163.4v4.33H137ZM152.12,0h6.07l-6,7.26h-4.06Z"/><path class="cls-1" d="M180.28,16.37H166.64V12.05h32.43v4.32H185.43V51.59h-5.15Z"/><path class="cls-1" d="M204.47,12.05h25.69v4.32H209.62V29.29h19.61v4.33H209.62V47.26h21.21v4.33H204.47ZM219.56,0h6.07l-6,7.26h-4.07Z"/></g></g></svg>